<svg width="36" height="31" viewBox="0 0 36 31" fill="none" xmlns="http://www.w3.org/2000/svg">
<g clip-path="url(#clip0_472_118)">
<path d="M24.2907 17.5136C24.9857 17.5136 25.5617 17.8572 26.0629 18.5366C26.5589 19.2212 26.8224 20.0556 26.8224 21.0554C26.8224 22.05 26.5589 22.8921 26.0629 23.569C25.5643 24.2536 24.9857 24.592 24.2907 24.592C23.5726 24.592 22.9422 24.2536 22.4437 23.569C21.9477 22.8921 21.6842 22.05 21.6842 21.0554C21.6842 20.0556 21.9477 19.2212 22.4437 18.5366C22.9397 17.8546 23.57 17.5136 24.2907 17.5136ZM33.1774 8.31955C35.1046 10.4146 36.0837 12.9566 36.0837 15.9481C36.0837 17.8805 35.8615 19.6242 35.4146 21.1742C34.9625 22.7165 34.3967 23.9746 33.7251 24.9433C33.0431 25.9146 32.2061 26.7646 31.2089 27.4982C30.2117 28.2371 29.2947 28.7692 28.4577 29.1076C27.6181 29.4486 26.6622 29.7096 25.5876 29.8981C24.5103 30.0816 23.7121 30.1849 23.1515 30.2159C22.6012 30.2391 22.02 30.2521 21.3819 30.2521C21.2398 30.2521 20.7542 30.2624 19.9688 30.2908C19.1912 30.3244 18.5222 30.3321 18.0003 30.3321C17.4785 30.3321 16.8094 30.3244 16.0318 30.2908C15.2465 30.2624 14.7608 30.2521 14.6187 30.2521C13.9832 30.2521 13.3994 30.2391 12.8492 30.2159C12.286 30.1849 11.4903 30.0816 10.4131 29.8981C9.32033 29.7121 8.38258 29.4486 7.54299 29.1076C6.70599 28.7692 5.78633 28.2371 4.79433 27.4982C3.79458 26.7646 2.95758 25.9146 2.27558 24.9433C1.60133 23.9746 1.03816 22.7165 0.586075 21.1742C0.139158 19.6242 -0.0830078 17.8805 -0.0830078 15.9481C-0.0830078 12.9566 0.896076 10.4121 2.82324 8.31955C2.61141 8.21363 2.60366 7.1648 2.80258 5.17563C2.96533 3.18388 3.38899 1.34714 4.08133 -0.332031C6.49416 -0.0762812 9.48049 1.29289 13.0481 3.75222C14.2519 3.4448 15.8923 3.27947 18.0003 3.27947C20.2013 3.27947 21.8521 3.4448 22.9552 3.7548C24.5801 2.65688 26.1327 1.76305 27.6181 1.08364C29.1267 0.409385 30.2143 0.00896898 30.8963 -0.0969477L31.9193 -0.329448C32.6168 1.34714 33.0405 3.18389 33.2007 5.17822C33.397 7.1648 33.3892 8.21363 33.1774 8.31955ZM18.0778 28.5212C22.4385 28.5212 25.709 27.9994 27.9487 26.9531C30.1575 25.9095 31.2864 23.755 31.2864 20.5051C31.2864 18.6193 30.5812 17.0435 29.1629 15.7828C28.4447 15.1034 27.5793 14.6849 26.608 14.5273C25.6392 14.3697 24.1564 14.3697 22.1647 14.5273C20.1781 14.6875 18.8115 14.7598 18.0778 14.7598C17.0832 14.7598 16.0112 14.7133 14.6704 14.6074C13.3271 14.5041 12.2731 14.4395 11.511 14.4059C10.7515 14.3826 9.93774 14.4756 9.03616 14.6849C8.14491 14.8967 7.41124 15.2636 6.83258 15.7828C5.48666 16.9944 4.79174 18.5651 4.79174 20.5051C4.79174 23.755 5.89224 25.9095 8.09841 26.9531C10.2942 27.9994 13.557 28.5212 17.9202 28.5212H18.0778ZM11.79 17.5136C12.4823 17.5136 13.061 17.8572 13.5596 18.5366C14.0556 19.2212 14.3191 20.0556 14.3191 21.0554C14.3191 22.05 14.0556 22.8921 13.5596 23.569C13.0636 24.2536 12.4823 24.592 11.79 24.592C11.0692 24.592 10.4415 24.2536 9.94033 23.569C9.44433 22.8921 9.18083 22.05 9.18083 21.0554C9.18083 20.0556 9.44433 19.2212 9.94033 18.5366C10.4389 17.8546 11.0667 17.5136 11.79 17.5136Z" fill="#E5D8CF"/>
</g>
<defs>
<clipPath id="clip0_472_118">
<rect width="36" height="31" fill="white"/>
</clipPath>
</defs>
</svg>
