<svg width="36" height="36" viewBox="0 0 36 36" fill="none" xmlns="http://www.w3.org/2000/svg">
<g clip-path="url(#clip0_472_111)">
<g filter="url(#filter0_d_472_111)">
<path d="M17.8887 8.37036C12.7035 8.37036 8.40723 12.5926 8.40723 17.8518C8.40723 23.1111 12.6294 27.3333 17.8887 27.3333C23.148 27.3333 27.3702 23.037 27.3702 17.8518C27.3702 12.6667 23.0739 8.37036 17.8887 8.37036ZM17.8887 23.9259C14.5554 23.9259 11.8146 21.1852 11.8146 17.8518C11.8146 14.5185 14.5554 11.7778 17.8887 11.7778C21.222 11.7778 23.9628 14.5185 23.9628 17.8518C23.9628 21.1852 21.222 23.9259 17.8887 23.9259Z" fill="#E5D8CF"/>
<path d="M27.7409 10.2963C28.9273 10.2963 29.8891 9.33454 29.8891 8.14815C29.8891 6.96176 28.9273 6 27.7409 6C26.5545 6 25.5928 6.96176 25.5928 8.14815C25.5928 9.33454 26.5545 10.2963 27.7409 10.2963Z" fill="#E5D8CF"/>
<path d="M33.2963 2.5927C31.3704 0.592701 28.6297 -0.444336 25.5186 -0.444336H10.2593C3.81485 -0.444336 -0.481445 3.85196 -0.481445 10.2964V25.4816C-0.481445 28.6668 0.555592 31.4075 2.62967 33.4075C4.62967 35.3334 7.29633 36.2964 10.3334 36.2964H25.4445C28.6297 36.2964 31.2963 35.2594 33.2223 33.4075C35.2223 31.4816 36.2593 28.7408 36.2593 25.5557V10.2964C36.2593 7.18529 35.2223 4.51863 33.2963 2.5927ZM33 25.5557C33 27.852 32.1852 29.7038 30.8519 30.9631C29.5186 32.2223 27.6667 32.889 25.4445 32.889H10.3334C8.11115 32.889 6.25929 32.2223 4.92596 30.9631C3.59263 29.6297 2.92596 27.7779 2.92596 25.4816V10.2964C2.92596 8.07418 3.59263 6.22233 4.92596 4.889C6.18522 3.62974 8.11115 2.96307 10.3334 2.96307H25.5926C27.8148 2.96307 29.6667 3.62974 31 4.96307C32.2593 6.2964 33 8.14825 33 10.2964V25.5557Z" fill="#E5D8CF"/>
</g>
</g>
<defs>
<filter id="filter0_d_472_111" x="-4.48145" y="-0.444336" width="44.7412" height="44.7407" filterUnits="userSpaceOnUse" color-interpolation-filters="sRGB">
<feFlood flood-opacity="0" result="BackgroundImageFix"/>
<feColorMatrix in="SourceAlpha" type="matrix" values="0 0 0 0 0 0 0 0 0 0 0 0 0 0 0 0 0 0 127 0" result="hardAlpha"/>
<feOffset dy="4"/>
<feGaussianBlur stdDeviation="2"/>
<feComposite in2="hardAlpha" operator="out"/>
<feColorMatrix type="matrix" values="0 0 0 0 0 0 0 0 0 0 0 0 0 0 0 0 0 0 0.25 0"/>
<feBlend mode="normal" in2="BackgroundImageFix" result="effect1_dropShadow_472_111"/>
<feBlend mode="normal" in="SourceGraphic" in2="effect1_dropShadow_472_111" result="shape"/>
</filter>
<clipPath id="clip0_472_111">
<rect width="36" height="36" fill="white"/>
</clipPath>
</defs>
</svg>
